# xmcd
#
# Track frame offsets:
# 150
# 25620
# 37013
# 52053
# 69356
# 91425
# 104705
# 119620
# 142141
# 156301
# 178629
# 193227
# 208828
# 237709
# 261301
# 288623
#
# Disc length: 4238 seconds
#
#
# Revision: 0
# Processed by: cddbd v1.5.2PL0 Copyright (c) Steve Scherf et al.
# Submitted via: FreeRIP 2.945 
#
DISCID=09108c10
DTITLE=Cássia Abreu - Ao Vivo
DYEAR=1900
DGENRE=
TTITLE0=Temporal a Quatro Mãos América Coração
TTITLE1=Forronerão
TTITLE2=Pé de Cedro
TTITLE3=Pra Sempre em Minha Vida
TTITLE4=Coraçón Partío
TTITLE5=Temporal
TTITLE6=Volare
TTITLE7=Has Amado una Mujer Deveras
TTITLE8=Rei do Gado
TTITLE9=a Mi Maneira
TTITLE10=Grito de Liberdade
TTITLE11=Eu Só Peço a Deus
TTITLE12=Madrugada, Tchau Amor
TTITLE13=Chão Farrapo
TTITLE14=Milonga para as Missões
TTITLE15=Merceditas
EXTD=
EXTT0=
EXTT1=
EXTT2=
EXTT3=
EXTT4=
EXTT5=
EXTT6=
EXTT7=
EXTT8=
EXTT9=
EXTT10=
EXTT11=
EXTT12=
EXTT13=
EXTT14=
EXTT15=
PLAYORDER=
